<?xml version="1.0" standalone="no"?><!DOCTYPE svg PUBLIC "-//W3C//DTD SVG 1.1//EN" "http://www.w3.org/Graphics/SVG/1.1/DTD/svg11.dtd"><svg t="1767066853720" class="icon" viewBox="0 0 1024 1024" version="1.1" xmlns="http://www.w3.org/2000/svg" p-id="17665" width="512" height="512" xmlns:xlink="http://www.w3.org/1999/xlink"><path d="M0 256a204.8 204.8 0 1 1 409.6 0v512a204.8 204.8 0 0 1-409.6 0V256z m307.2 0a102.4 102.4 0 1 0-204.8 0v512a102.4 102.4 0 1 0 204.8 0V256zM512 51.2h512v921.6H512V51.2z m162.0992 307.2H563.2c0 8.96 2.3552 18.0736 7.3216 26.368L708.1984 614.4l-137.728 229.632A50.944 50.944 0 0 0 563.2 870.4h110.8992L768 713.9328 861.9008 870.4H972.8a50.944 50.944 0 0 0-7.2704-26.368L827.6992 614.4l137.8304-229.632A50.944 50.944 0 0 0 972.8 358.4h-110.8992L768 514.8672 674.0992 358.4z" fill="#0EB16C" p-id="17666"></path></svg>